Coordinates
version=1
nRows=13
nColumns=34
inDegrees=yes

Units are S.I. units (second, meters, Newtons, ...)
If the header above contains a line with 'inDegrees', this indicates whether rotational values are in degrees (yes) or radians (no).

endheader
time	pelvis_tilt	pelvis_list	pelvis_rotation	pelvis_tx	pelvis_ty	pelvis_tz	hip_flexion_r	hip_adduction_r	hip_rotation_r	knee_angle_r	ankle_angle_r	subtalar_angle_r	mtp_angle_r	hip_flexion_l	hip_adduction_l	hip_rotation_l	knee_angle_l	ankle_angle_l	subtalar_angle_l	mtp_angle_l	lumbar_extension	lumbar_bending	lumbar_rotation	arm_flex_r	arm_add_r	arm_rot_r	elbow_flex_r	pro_sup_r	arm_flex_l	arm_add_l	arm_rot_l	elbow_flex_l	pro_sup_l
      8.20000000	      5.38717148	      0.87263214	    -18.71153317	      0.06895750	      1.02412298	     -0.15397362	    -15.22270801	     -9.02643241	    -33.02254245	     13.18424688	      8.97896697	     -7.01185358	      0.00000000	      1.14671121	      3.59463708	     16.37893711	     10.81359545	      6.44479919	      4.82705302	      0.00000000	    -12.20492579	      2.81499109	     23.65898055	     44.42233156	     -7.07046343	     55.59646012	     30.08188716	    119.74817918	     38.66718520	    -21.59392233	     23.80413060	     26.44024653	    119.74817918
      8.21666670	      5.40454499	      0.85601168	    -18.69855380	      0.06892478	      1.02411596	     -0.15402155	    -15.23738915	     -9.01307799	    -33.01750213	     13.20067228	      8.98633837	     -7.02090468	      0.00000000	      1.12957326	      3.59040751	     16.37935027	     10.82472273	      6.43232039	      4.82843725	      0.00000000	    -12.16782803	      2.78501021	     23.66467075	     44.43188892	     -7.06210546	     55.60342722	     30.08296820	    119.74817918	     38.62796437	    -21.52610513	     23.82773155	     26.45619446	    119.74817918
      8.23333330	      5.41144925	      0.84344546	    -18.69311303	      0.06879006	      1.02416981	     -0.15418238	    -15.23695436	     -9.01561767	    -33.01668497	     13.20095489	      8.98774124	     -7.02268497	      0.00000000	      1.12869034	      3.59352292	     16.37947765	     10.82453012	      6.43083493	      4.82895236	      0.00000000	    -12.16107199	      2.78166303	     23.66814576	     44.43040030	     -7.06100865	     55.60500464	     30.08242387	    119.74817918	     38.62337709	    -21.51855816	     23.83091949	     26.45939658	    119.74817918
      8.25000000	      5.43777652	      0.82147386	    -18.66717722	      0.06891973	      1.02414675	     -0.15438151	    -15.26486340	     -9.00966560	    -33.01110256	     13.23471901	      8.99922088	     -7.04223976	      0.00000000	      1.09299597	      3.58362139	     16.38336748	     10.84024543	      6.41480818	      4.83380689	      0.00000000	    -12.09879630	      2.75658660	     23.68229014	     44.43596066	     -7.05216862	     55.61630350	     30.07861314	    119.74817918	     38.57511653	    -21.39273415	     23.87153351	     26.51097916	    119.74817918
      8.26666670	      5.43864996	      0.80825778	    -18.65928106	      0.06865722	      1.02424315	     -0.15452905	    -15.26344770	     -9.01823611	    -33.01045033	     13.23273668	      9.00038601	     -7.04424902	      0.00000000	      1.09215574	      3.58692949	     16.38366265	     10.83909364	      6.41414492	      4.83436603	      0.00000000	    -12.09834223	      2.75707377	     23.68726785	     44.43046686	     -7.05227045	     55.61808010	     30.07705087	    119.74817918	     38.57224387	    -21.38973188	     23.87389948	     26.51437137	    119.74817918
      8.28333330	      5.44446143	      0.79517745	    -18.65186247	      0.06844995	      1.02427752	     -0.15478425	    -15.25846854	     -9.02084982	    -33.01029489	     13.23154070	      9.00118198	     -7.04575369	      0.00000000	      1.09065439	      3.58938764	     16.38391660	     10.83850069	      6.41349409	      4.83485122	      0.00000000	    -12.09730674	      2.75219774	     23.69216976	     44.42627177	     -7.05054755	     55.61955994	     30.07631211	    119.74817918	     38.56595196	    -21.38280705	     23.87708906	     26.51783645	    119.74817918
      8.30000000	      5.45016752	      0.78476008	    -18.61792517	      0.06812738	      1.02440108	     -0.15496300	    -15.25347966	     -9.00708654	    -33.00997939	     13.25347987	      9.00408181	     -7.05815967	      0.00000000	      1.08768918	      3.58661234	     16.38813657	     10.83301602	      6.40730851	      4.83817382	      0.00000000	    -12.12757568	      2.72616606	     23.71717424	     44.38658804	     -7.04542039	     55.63039946	     30.06550755	    119.74817918	     38.50109683	    -21.29414642	     23.91088464	     26.55620491	    119.74817918
      8.31666670	      5.45712418	      0.77161922	    -18.61655262	      0.06789508	      1.02442425	     -0.15527859	    -15.25027806	     -9.00779625	    -33.01004445	     13.25329426	      9.00412272	     -7.05905053	      0.00000000	      1.08550791	      3.59060244	     16.38834303	     10.83310308	      6.40659701	      4.83876540	      0.00000000	    -12.12147697	      2.72293510	     23.71904213	     44.38518426	     -7.04518897	     55.63065997	     30.06488662	    119.74817918	     38.49890494	    -21.29010037	     23.91287943	     26.55996974	    119.74817918
      8.33333330	      5.46279959	      0.75650540	    -18.61453738	      0.06765034	      1.02442884	     -0.15552924	    -15.24724290	     -9.01002530	    -33.00985637	     13.25306289	      9.00389623	     -7.05979962	      0.00000000	      1.08369475	      3.59241586	     16.38855061	     10.83336561	      6.40585618	      4.83912922	      0.00000000	    -12.11682892	      2.71683735	     23.72010927	     44.38311568	     -7.04524982	     55.63080212	     30.06402588	    119.74817918	     38.49415185	    -21.28333096	     23.91561597	     26.56433182	    119.74817918
      8.35000000	      5.47635094	      0.73530615	    -18.59699026	      0.06742488	      1.02449471	     -0.15575888	    -15.25209958	     -9.00286651	    -33.00690414	     13.28867310	      8.98989980	     -7.06739509	      0.00000000	      1.06856008	      3.57920121	     16.39255043	     10.83853332	      6.39182029	      4.84078792	      0.00000000	    -12.11922297	      2.70293855	     23.75465854	     44.36088165	     -7.05334379	     55.62565624	     30.05050064	    119.74817918	     38.42321720	    -21.16978275	     23.96087970	     26.65343237	    119.74817918
      8.36666670	      5.48711923	      0.71959300	    -18.59062678	      0.06719298	      1.02449650	     -0.15616143	    -15.24581117	     -9.00572565	    -33.00687760	     13.28569513	      8.98884923	     -7.06738034	      0.00000000	      1.06850551	      3.58736494	     16.39219857	     10.83687984	      6.39116923	      4.84116187	      0.00000000	    -12.11320082	      2.70540152	     23.76415922	     44.36155261	     -7.05209727	     55.62466044	     30.05099964	    119.74817918	     38.42270424	    -21.17411694	     23.96140877	     26.65771292	    119.74817918
      8.38333330	      5.49319840	      0.70931627	    -18.58550734	      0.06697502	      1.02454350	     -0.15644148	    -15.24249166	     -9.00846458	    -33.00673636	     13.28355910	      8.98761306	     -7.06702726	      0.00000000	      1.06786759	      3.59164516	     16.39182118	     10.83611073	      6.39071462	      4.84117044	      0.00000000	    -12.10792055	      2.70657696	     23.77192288	     44.36492335	     -7.05071316	     55.62309642	     30.05225447	    119.74817918	     38.42063587	    -21.17555926	     23.96232031	     26.66181387	    119.74817918
      8.40000000	      5.50253782	      0.69928762	    -18.58085550	      0.06675845	      1.02457356	     -0.15673412	    -15.23750120	     -9.01346694	    -33.00645954	     13.27960114	      8.98588449	     -7.06621983	      0.00000000	      1.06692838	      3.58968058	     16.39149708	     10.83607312	      6.39037602	      4.84064881	      0.00000000	    -12.10041677	      2.70463398	     23.77823933	     44.37237706	     -7.04993016	     55.62031312	     30.05429433	    119.74817918	     38.41610520	    -21.17337371	     23.96419672	     26.66735275	    119.74817918
